<svg width="114" height="32" viewBox="0 0 114 32" fill="none" xmlns="http://www.w3.org/2000/svg">
<path d="M0.741891 24.8281V12.5983H16.5825V11.883H0.741891V0.725917H17.5841V0.0107727H0V25.5433H17.7323V24.8281H0.742113H0.741891ZM32.0151 7.16264L25.4489 15.4948L19.0309 7.16286H18.0663L25.0036 16.0313L17.3984 25.5431H18.2888L25.4485 16.5673L32.6454 25.5431H33.5728L25.9308 16.0309L32.905 7.16243H32.0149L32.0151 7.16264ZM35.7989 31.8371V20.3941H35.873C36.3184 22.0628 37.1963 23.4038 38.5071 24.4171C39.8178 25.4302 41.4871 25.9369 43.515 25.9369C44.8258 25.9369 45.9883 25.6806 47.0023 25.1681C48.0163 24.6556 48.8633 23.9582 49.5435 23.0761C50.2235 22.194 50.7429 21.1689 51.1016 20.0007C51.4601 18.8327 51.6396 17.6048 51.6396 16.3176C51.6396 14.9348 51.4539 13.6593 51.0829 12.4912C50.712 11.323 50.174 10.3098 49.4693 9.45166C48.7644 8.59336 47.9112 7.92565 46.9094 7.44917C45.9079 6.97227 44.7764 6.73381 43.515 6.73381C42.5505 6.73381 41.6541 6.87096 40.8256 7.14504C39.9971 7.41934 39.2614 7.80653 38.6184 8.30726C37.9716 8.81184 37.4086 9.40875 36.9489 10.0773C36.4791 10.7568 36.1204 11.5018 35.873 12.3125H35.7989V7.16264H35.057V31.8371H35.7989ZM43.515 25.2572C41.1905 25.2572 39.3231 24.4884 37.9135 22.9508C36.5038 21.4132 35.7989 19.2018 35.7989 16.3172C35.7989 15.1252 35.9721 13.9928 36.3184 12.9201C36.6646 11.8474 37.1653 10.9056 37.8206 10.0951C38.4761 9.28447 39.2861 8.64079 40.2505 8.1641C41.215 7.6872 42.3034 7.44874 43.515 7.44874C44.7517 7.44874 45.8338 7.6872 46.7612 8.1641C47.6885 8.64079 48.4553 9.29048 49.0612 10.1129C49.667 10.9354 50.1246 11.8772 50.4339 12.9379C50.7429 13.9988 50.8974 15.1252 50.8974 16.3172C50.8974 17.3902 50.7554 18.4571 50.4708 19.5178C50.1865 20.5787 49.7474 21.5323 49.1538 22.3788C48.5604 23.2248 47.8001 23.9162 46.8725 24.4527C45.9449 24.9891 44.8258 25.2572 43.515 25.2572ZM55.7202 25.5433V15.1372C55.7202 14.1359 55.8685 13.1583 56.1655 12.2049C56.4621 11.2513 56.9196 10.4108 57.5379 9.68389C58.1562 8.95673 58.9413 8.38453 59.8936 7.96729C60.8457 7.55005 61.9773 7.37727 63.288 7.44874V6.7336C62.1503 6.70999 61.155 6.8289 60.3018 7.09117C59.4483 7.35345 58.7127 7.71102 58.0944 8.1641C57.476 8.61697 56.9815 9.14732 56.6106 9.75536C56.2399 10.3624 55.9648 11.0192 55.7943 11.7042H55.7202V7.16264H54.9783V25.5435H55.7202V25.5433ZM64.2154 16.496H80.1672C80.2168 15.2325 80.087 14.0168 79.7777 12.8486C79.4687 11.6804 78.9739 10.6433 78.294 9.73755C77.6137 8.8316 76.7358 8.10444 75.6599 7.55606C74.5841 7.00768 73.3042 6.7336 71.8204 6.7336C70.7568 6.7336 69.7181 6.94823 68.7041 7.37749C67.6902 7.80653 66.7998 8.43218 66.0332 9.25463C65.2666 10.0771 64.6482 11.0843 64.1784 12.2766C63.7086 13.4684 63.4735 14.8273 63.4735 16.3531C63.4735 17.7119 63.6343 18.9814 63.9558 20.1614C64.2773 21.3415 64.7718 22.3668 65.4396 23.2369C66.1075 24.107 66.967 24.7805 68.0179 25.2572C69.0689 25.7341 70.3364 25.9605 71.8204 25.9367C73.9967 25.9367 75.8269 25.3465 77.3107 24.1666C78.7947 22.9864 79.6726 21.3237 79.9447 19.178H79.2028C78.8813 21.2045 78.0588 22.7243 76.7358 23.7374C75.4126 24.7506 73.7495 25.2572 71.7461 25.2572C70.3859 25.2572 69.2359 25.0307 68.296 24.5779C67.3564 24.125 66.5896 23.5049 65.996 22.7183C65.4026 21.9315 64.9635 21.0077 64.6792 19.9468C64.3946 18.8861 64.2401 17.7357 64.2154 16.496ZM79.4253 15.7809H64.2156C64.2895 14.4935 64.5369 13.3373 64.9573 12.3122C65.3779 11.287 65.9281 10.4108 66.6083 9.68389C67.2883 8.95673 68.0798 8.40256 68.9825 8.02095C69.8851 7.63955 70.8559 7.44874 71.8946 7.44874C73.1312 7.44874 74.2191 7.66938 75.1592 8.11045C76.0988 8.55151 76.8841 9.15354 77.5149 9.91634C78.1454 10.6791 78.6215 11.5673 78.943 12.5803C79.2645 13.5936 79.4253 14.6605 79.4253 15.7809ZM95.5627 12.5983H96.3046C96.3046 10.548 95.6863 9.05803 94.4499 8.12826C93.213 7.19849 91.5313 6.7336 89.4045 6.7336C88.2173 6.7336 87.2158 6.87676 86.3995 7.16286C85.5835 7.44875 84.9157 7.81834 84.3963 8.2712C83.8771 8.72407 83.5061 9.2248 83.2835 9.77318C83.0608 10.3216 82.9495 10.8461 82.9495 11.3466C82.9495 12.3479 83.1349 13.1465 83.5061 13.7425C83.8771 14.3386 84.4582 14.8034 85.2495 15.1372C85.7937 15.3754 86.4118 15.5901 87.1045 15.7811C87.7969 15.9717 88.6007 16.1743 89.5158 16.3887C90.3319 16.5797 91.1357 16.7703 91.9272 16.9609C92.7185 17.1517 93.4172 17.408 94.0231 17.7297C94.6291 18.0516 95.1236 18.4629 95.5071 18.9636C95.8903 19.4641 96.082 20.1198 96.082 20.9302C96.082 21.7171 95.8905 22.3846 95.5071 22.9327C95.1269 23.4783 94.6266 23.9362 94.0418 24.2739C93.4482 24.6195 92.7864 24.8698 92.057 25.0247C91.3274 25.1797 90.6164 25.2572 89.924 25.2572C87.6733 25.2572 85.9482 24.7745 84.7488 23.8091C83.5493 22.8434 82.9497 21.3237 82.9497 19.2495H82.2076C82.2076 21.5621 82.8568 23.2547 84.1552 24.3276C85.4537 25.4003 87.3765 25.9367 89.924 25.9367C90.74 25.9367 91.5623 25.8472 92.391 25.6684C93.2193 25.4896 93.9614 25.1977 94.6167 24.7923C95.2664 24.3926 95.8121 23.8543 96.2118 23.219C96.6199 22.5752 96.8241 21.7885 96.8241 20.8588C96.8241 19.9766 96.6446 19.2615 96.2861 18.7131C95.9274 18.165 95.4576 17.7119 94.8763 17.3543C94.2951 16.9967 93.6399 16.7166 92.9102 16.514C92.1765 16.3102 91.4406 16.1135 90.7028 15.9238C89.7948 15.6942 88.8859 15.4677 87.9762 15.2445C87.1973 15.0537 86.4739 14.8273 85.8062 14.565C85.1631 14.3027 84.6499 13.9273 84.2665 13.4386C83.8831 12.9499 83.6916 12.2526 83.6916 11.3466C83.6916 11.1799 83.741 10.8817 83.8399 10.4527C83.9387 10.0234 84.1739 9.58838 84.5448 9.14732C84.9157 8.70647 85.4844 8.31306 86.2512 7.96729C87.0178 7.62174 88.069 7.44874 89.4045 7.44874C90.3196 7.44874 91.1541 7.54425 91.9085 7.73485C92.6629 7.92565 93.3121 8.22957 93.8561 8.6468C94.4002 9.06404 94.8206 9.59439 95.1174 10.2381C95.4142 10.882 95.5627 11.6686 95.5627 12.5983ZM112.739 12.5983H113.481C113.481 10.548 112.862 9.05803 111.626 8.12826C110.389 7.19849 108.707 6.7336 106.58 6.7336C105.393 6.7336 104.392 6.87676 103.576 7.16286C102.759 7.44875 102.092 7.81834 101.572 8.2712C101.053 8.72407 100.682 9.2248 100.459 9.77318C100.237 10.3216 100.126 10.8461 100.126 11.3466C100.126 12.3479 100.311 13.1465 100.682 13.7425C101.053 14.3386 101.634 14.8034 102.426 15.1372C102.97 15.3754 103.588 15.5901 104.28 15.7811C104.973 15.9717 105.777 16.1743 106.692 16.3887C107.508 16.5797 108.312 16.7703 109.103 16.9609C109.895 17.1517 110.593 17.408 111.199 17.7297C111.805 18.0516 112.3 18.4629 112.683 18.9636C113.066 19.4641 113.258 20.1198 113.258 20.9302C113.258 21.7171 113.066 22.3846 112.683 22.9327C112.303 23.4782 111.803 23.9362 111.218 24.2739C110.624 24.6195 109.963 24.8698 109.233 25.0247C108.504 25.1797 107.792 25.2572 107.1 25.2572C104.849 25.2572 103.124 24.7745 101.925 23.8091C100.725 22.8434 100.126 21.3237 100.126 19.2495H99.3837C99.3837 21.5621 100.033 23.2547 101.331 24.3276C102.63 25.4003 104.552 25.9367 107.1 25.9367C107.916 25.9367 108.738 25.8472 109.567 25.6684C110.395 25.4896 111.137 25.1977 111.793 24.7923C112.443 24.3926 112.988 23.8543 113.388 23.219C113.796 22.5752 114 21.7885 114 20.8588C114 19.9766 113.821 19.2615 113.462 18.7131C113.104 18.165 112.634 17.7119 112.052 17.3543C111.471 16.9967 110.816 16.7166 110.086 16.514C109.353 16.3102 108.617 16.1135 107.879 15.9238C106.971 15.6942 106.062 15.4677 105.152 15.2445C104.373 15.0537 103.65 14.8273 102.982 14.565C102.339 14.3027 101.826 13.9273 101.443 13.4386C101.059 12.9499 100.868 12.2526 100.868 11.3466C100.868 11.1799 100.917 10.8817 101.016 10.4527C101.115 10.0234 101.35 9.58838 101.721 9.14732C102.092 8.70647 102.661 8.31306 103.427 7.96729C104.194 7.62174 105.245 7.44874 106.581 7.44874C107.496 7.44874 108.33 7.54425 109.085 7.73485C109.839 7.92565 110.488 8.22957 111.032 8.6468C111.576 9.06404 111.997 9.59439 112.294 10.2381C112.59 10.882 112.739 11.6686 112.739 12.5983H112.739Z" fill="#3D3D63"/>
</svg>
