<svg width="62" height="72" viewBox="0 0 62 72" fill="none" xmlns="http://www.w3.org/2000/svg">
<path d="M0 36.0064C0 31.8205 5.1435 27.8536 13.0294 25.3936C11.2095 17.2022 12.0183 10.6852 15.5821 8.59867C16.4036 8.10924 17.364 7.87741 18.413 7.87741V10.7496C17.8316 10.7496 17.364 10.8655 16.9723 11.0844C15.2536 12.089 14.5079 15.9143 15.0893 20.8343C15.2283 22.0449 15.4558 23.32 15.7338 24.6209C18.2108 24.0026 20.9152 23.5261 23.7587 23.217C25.4647 20.8343 27.234 18.6705 29.0159 16.7772C24.896 12.8747 21.0289 10.7367 18.4003 10.7367V7.86453C21.8757 7.86453 26.4252 10.3889 31.0253 14.768C35.6254 10.4147 40.1749 7.91605 43.6502 7.91605V10.7882C41.0342 10.7882 37.1545 12.9133 33.0347 16.7901C34.8039 18.6834 36.5732 20.8343 38.254 23.217C41.1101 23.5261 43.8145 24.0026 46.2915 24.6337C46.5821 23.3458 46.797 22.0965 46.9486 20.8987C47.5426 15.9787 46.8096 12.1534 45.1035 11.1359C44.7244 10.9041 44.2316 10.8011 43.6502 10.8011V7.92893C44.7118 7.92893 45.6722 8.16076 46.5063 8.65019C50.0575 10.7367 50.8536 17.2409 49.0212 25.4065C56.8818 27.8794 62 31.8334 62 36.0064C62 40.1923 56.8565 44.1592 48.9706 46.6192C50.7905 54.8106 49.9817 61.3276 46.4179 63.4141C45.5964 63.9036 44.636 64.1354 43.5744 64.1354C40.0991 64.1354 35.5495 61.611 30.9494 57.2319C26.3494 61.5852 21.7998 64.0839 18.3245 64.0839C17.2629 64.0839 16.3025 63.852 15.4684 63.3626C11.9172 61.2761 11.1211 54.7719 12.9535 46.6063C5.11823 44.1463 0 40.1794 0 36.0064ZM16.4541 27.4157C16.9217 29.0772 17.5031 30.7902 18.1602 32.5032C18.6784 31.4728 19.2218 30.4424 19.8157 29.4121C20.3971 28.3817 21.0163 27.3771 21.6355 26.3982C19.841 26.6687 18.1097 27.0036 16.4541 27.4157ZM22.2422 41.1325C23.2279 42.8712 24.2389 44.5198 25.2878 46.0525C27.1708 46.2199 29.0791 46.3101 31 46.3101C32.9083 46.3101 34.8165 46.2199 36.6869 46.0653C37.7358 44.5327 38.7595 42.897 39.7452 41.1711C40.7057 39.4839 41.5777 37.7709 42.3738 36.045C41.5903 34.3192 40.7057 32.5933 39.7578 30.9061C38.7721 29.1673 37.7611 27.5188 36.7122 25.9861C34.8292 25.8187 32.9209 25.7285 31 25.7285C29.0917 25.7285 27.1834 25.8187 25.3131 25.9732C24.2642 27.5059 23.2405 29.1416 22.2548 30.8675C21.2943 32.5547 20.4223 34.2677 19.6262 35.9935C20.4223 37.7194 21.2943 39.4452 22.2422 41.1325ZM18.1602 39.4581C17.4778 41.184 16.8965 42.9099 16.4162 44.5842C18.0717 44.9963 19.8157 45.3441 21.6229 45.6146C21.0037 44.6228 20.3844 43.6054 19.8031 42.5621C19.2218 41.5317 18.6784 40.4885 18.1602 39.4581ZM30.9747 53.2006C32.15 51.9642 33.3253 50.5861 34.488 49.0792C33.3506 49.1307 32.1879 49.1693 31.0126 49.1693C29.8247 49.1693 28.6494 49.1436 27.4994 49.0792C28.6368 50.5861 29.8121 51.9642 30.9747 53.2006ZM40.3771 45.6146C42.1716 45.3441 43.903 45.0092 45.5585 44.5971C45.0909 42.9356 44.5096 41.2226 43.8524 39.5096C43.3343 40.54 42.7909 41.5704 42.1969 42.6007C41.6029 43.6311 40.9963 44.6357 40.3771 45.6146ZM31.0379 18.8122C29.8626 20.0486 28.6873 21.4267 27.5247 22.9336C28.662 22.8821 29.8247 22.8435 31 22.8435C32.1879 22.8435 33.3632 22.8692 34.5132 22.9336C33.3759 21.4267 32.2006 20.0486 31.0379 18.8122ZM40.3897 26.3982C41.009 27.39 41.6282 28.4075 42.2095 29.4507C42.7909 30.4811 43.3343 31.5114 43.8524 32.5418C44.5349 30.8159 45.1162 29.0901 45.5964 27.4157C43.9409 27.0165 42.1969 26.6687 40.3897 26.3982ZM51.8267 42.5235C56.3004 40.5787 59.1945 38.0285 59.1945 36.0064C59.1945 33.9843 56.3004 31.4213 51.8267 29.4893C50.7399 29.0128 49.552 28.5878 48.3261 28.1885C47.6058 30.7129 46.658 33.3403 45.4827 36.0322C46.6453 38.7111 47.5805 41.3257 48.2882 43.8372C49.5393 43.4379 50.7273 43 51.8267 42.5235ZM45.0277 60.9284C46.7464 59.9238 47.492 56.0985 46.9107 51.1785C46.7717 49.9679 46.5442 48.6928 46.2662 47.3919C43.7892 48.0102 41.0848 48.4867 38.2413 48.7958C36.5353 51.1785 34.766 53.3423 32.9841 55.2356C37.104 59.1381 40.9711 61.2761 43.5997 61.2761C44.1684 61.2632 44.6486 61.1473 45.0277 60.9284ZM15.0514 51.1141C14.4574 56.0341 15.1904 59.8594 16.8965 60.8769C17.2756 61.1087 17.7685 61.2117 18.3498 61.2117C20.9658 61.2117 24.8455 59.0866 28.9653 55.2098C27.1961 53.3166 25.4268 51.1657 23.746 48.7829C20.8899 48.4738 18.1855 47.9973 15.7085 47.3662C15.4179 48.667 15.1904 49.9163 15.0514 51.1141ZM10.1859 42.5235C11.2727 43 12.4607 43.425 13.6865 43.8243C14.4068 41.2999 15.3547 38.6725 16.53 35.9806C15.3673 33.3017 14.4321 30.6871 13.7244 28.1756C12.4733 28.5749 11.2854 29.0128 10.1733 29.4893C5.69955 31.4342 2.80555 33.9843 2.80555 36.0064C2.81818 38.0285 5.71219 40.5915 10.1859 42.5235Z" fill="#6161E1"/>
<path d="M31.0127 41.8924C27.823 41.8924 25.2373 39.2572 25.2373 36.0064C25.2373 32.7557 27.823 30.1205 31.0127 30.1205C34.2024 30.1205 36.7881 32.7557 36.7881 36.0064C36.7881 39.2572 34.2024 41.8924 31.0127 41.8924Z" fill="#6161E1"/>
</svg>
