<svg width="33" height="46" viewBox="0 0 33 46" fill="none" xmlns="http://www.w3.org/2000/svg">
<path d="M16.4799 45.8838L3.05128 42.1984L0.0587158 9.01727H32.9413L29.9456 42.1933L16.4799 45.8838Z" fill="#3D3D63"/>
<path d="M27.381 40.0808L29.9409 11.7303H16.5V43.0629L27.381 40.0808Z" fill="#3D3D63"/>
<path d="M6.91914 24.0367L7.28804 28.1063H16.5001V24.0367H6.91914ZM6.17773 15.7999L6.55192 19.8695H16.5001V15.7999H6.17773ZM16.5001 34.6058L16.482 34.6105L11.8975 33.3867L11.6044 30.1411H7.47197L8.04865 36.5309L16.4811 38.8449L16.5001 38.8398V34.6058Z" fill="#2F2D49"/>
<path d="M7.79749 0H12.7832V2.06121H9.8825V4.12242H12.7834V6.1835H7.79749V0ZM13.7804 0H18.7662V1.79234H15.8654V2.15079H18.7662V6.2732H13.7806V4.39102H16.6813V4.03258H13.7803V0H13.7804ZM19.7635 0H24.7493V1.79234H21.8485V2.15079H24.7493V6.2732H19.7635V4.39102H22.6643V4.03258H19.7636V0H19.7635Z" fill="#3D3D63"/>
<path d="M26.0547 24.0367L26.7977 15.7999H16.4858V19.8695H22.2864L21.9118 24.0367H16.4858V28.1063H21.5549L21.077 33.3842L16.4857 34.6092V38.843L24.9249 36.5309L24.9868 35.8433L25.9543 25.1295L26.0547 24.0367Z" fill="#2F2D49"/>
</svg>
