<svg width="33" height="46" viewBox="0 0 33 46" fill="none" xmlns="http://www.w3.org/2000/svg">
<g clip-path="url(#clip0)">
<path d="M3.00312 42.3037L0 9.04132H33L29.9936 42.2984L16.4798 45.998L3.00312 42.3037Z" fill="#3D3D63"/>
<path d="M16.4999 43.1701L27.4197 40.1807L29.9889 11.761H16.4999V43.1701Z" fill="#3D3D63"/>
<path d="M16.5 24.0975H11.0333L10.6557 19.9201H16.5V15.8405H6.14075L6.23964 16.935L7.25502 28.177H16.5V24.0975ZM16.5 34.6924L16.482 34.6972L11.8809 33.4704L11.5868 30.2168H7.43961L8.0184 36.6222L16.481 38.942L16.5 38.9368V34.6924Z" fill="#2F2D49"/>
<path d="M3.07019 0.00204468H5.16964V2.0503H7.09015V0.00204468H9.18969V6.20467H7.09024V4.12766H5.16973V6.20467H3.07037V0.00204468H3.07019ZM11.9505 2.05893H10.1024V0.00204468H15.8994V2.05893H14.0503V6.20467H11.9507L11.9505 2.05893ZM16.8193 0.00204468H19.0084L20.355 2.18146L21.7003 0.00204468H23.8903V6.20467H21.7995V3.13031L20.3551 5.33569H20.3191L18.8735 3.13031V6.20467H16.8194V0.00204468H16.8193ZM24.9352 0.00204468H27.0353V4.15444H29.9877V6.20467H24.9352V0.00204468Z" fill="#3D3D63"/>
<path d="M16.4858 24.0975V28.177H21.5729L21.0934 33.4678L16.4858 34.6958V38.94L24.9551 36.6222L25.0172 35.9329L25.988 25.193L26.0888 24.0975H24.9755H16.4858ZM16.4858 15.8405V19.9201H26.4647L26.5476 19.0031L26.7358 16.935L26.8346 15.8405H16.4858Z" fill="#2F2D49"/>
</g>
<defs>
<clipPath id="clip0">
<rect width="33" height="46" fill="white"/>
</clipPath>
</defs>
</svg>
