<svg width="34" height="34" viewBox="0 0 34 34" fill="none" xmlns="http://www.w3.org/2000/svg">
<path d="M0 0H34V34H0V0Z" fill="#3D3D63"/>
<path d="M8.93983 28.4129L11.5416 26.8382C12.0437 27.7282 12.5003 28.4812 13.5956 28.4812C14.6455 28.4812 15.3075 28.0706 15.3075 26.4731V15.6093H18.5026V26.5183C18.5026 29.8276 16.5627 31.3339 13.7325 31.3339C11.1765 31.3339 9.69288 30.0102 8.9397 28.4126L8.93983 28.4129ZM20.2381 28.0705L22.8396 26.5642C23.5245 27.6826 24.4146 28.5042 25.9892 28.5042C27.3132 28.5042 28.1574 27.8423 28.1574 26.9293C28.1574 25.8339 27.2901 25.4458 25.8295 24.807L25.0309 24.4643C22.7256 23.4832 21.1966 22.2507 21.1966 19.649C21.1966 17.2525 23.0223 15.4266 25.8753 15.4266C27.9065 15.4266 29.3672 16.1342 30.4169 17.9828L27.9291 19.5806C27.3812 18.5992 26.7881 18.2113 25.8752 18.2113C24.9394 18.2113 24.346 18.8047 24.346 19.5806C24.346 20.5391 24.9394 20.9273 26.3087 21.5207L27.1074 21.8629C29.8234 23.027 31.3525 24.2137 31.3525 26.8838C31.3525 29.7597 29.0931 31.3343 26.0576 31.3343C23.0907 31.3343 21.1736 29.9193 20.2379 28.0706" fill="#2F2D49"/>
</svg>
