<svg width="34" height="34" viewBox="0 0 34 34" fill="none" xmlns="http://www.w3.org/2000/svg">
<g clip-path="url(#clip0)">
<path d="M0.0796165 7.75738C0.0670319 7.80243 0.0606003 7.84888 0.0604782 7.89555V15.1491C0.0604744 15.2422 0.0858803 15.3337 0.134129 15.4143C0.182377 15.4948 0.251755 15.5616 0.335255 15.608L6.62979 19.1131V26.0606C6.62979 26.2497 6.73369 26.4242 6.9032 26.5194L20.0425 33.8352C20.0726 33.8517 20.1054 33.8623 20.1382 33.8735C20.1505 33.8775 20.1621 33.8848 20.1751 33.8881C20.267 33.9115 20.3635 33.9115 20.4554 33.8881C20.4704 33.8841 20.4841 33.8762 20.4984 33.8709C20.5285 33.8603 20.5599 33.851 20.5886 33.8352L33.7252 26.5194C33.8087 26.4731 33.878 26.4062 33.9263 26.3257C33.9745 26.2451 33.9999 26.1537 34 26.0606V4.29982C34 4.25222 33.9932 4.20594 33.9809 4.16099C33.9768 4.14578 33.9672 4.1319 33.9617 4.11669C33.9515 4.08893 33.9419 4.0605 33.9269 4.03472C33.9166 4.01753 33.9016 4.00364 33.8893 3.98778C33.8735 3.96662 33.8592 3.94481 33.8407 3.9263C33.825 3.91109 33.8045 3.89985 33.7867 3.88663C33.7669 3.87076 33.7491 3.85357 33.7266 3.84101H33.7259L27.1573 0.18314C27.0741 0.136851 26.9798 0.112488 26.8839 0.112488C26.7879 0.112488 26.6936 0.136851 26.6105 0.18314L20.0418 3.84101H20.0405C20.0186 3.85424 20.0001 3.87076 19.9803 3.88597C19.9625 3.89919 19.9427 3.91109 19.927 3.92563C19.9079 3.94481 19.8942 3.96662 19.8778 3.98778C19.8662 4.00364 19.8504 4.01753 19.8409 4.03472C19.8252 4.06116 19.8163 4.08893 19.8053 4.11669C19.7999 4.1319 19.7903 4.14578 19.7862 4.16165C19.7736 4.2067 19.7672 4.25315 19.7671 4.29982V17.8914L14.2934 14.8431V7.89489C14.2934 7.84861 14.2866 7.80167 14.2743 7.75738C14.2695 7.74151 14.2606 7.72763 14.2551 7.71242C14.2442 7.68466 14.2346 7.65623 14.2196 7.63045C14.2094 7.61326 14.1943 7.59937 14.1827 7.58351C14.1663 7.56235 14.1526 7.54054 14.1335 7.52202C14.1178 7.50682 14.0979 7.49558 14.0802 7.48236C14.0597 7.46649 14.0419 7.4493 14.02 7.43674H14.0193L7.45002 3.77887C7.36687 3.73252 7.27258 3.70812 7.17661 3.70812C7.08064 3.70812 6.98635 3.73252 6.9032 3.77887L0.334572 7.43674C0.311333 7.44997 0.29356 7.46649 0.273056 7.4817C0.255966 7.49492 0.236145 7.50682 0.220425 7.52136C0.201286 7.54053 0.187614 7.56235 0.171207 7.58351C0.158905 7.59937 0.143867 7.61326 0.1343 7.63045C0.118576 7.65623 0.109692 7.68466 0.0987549 7.71242C0.0926056 7.72763 0.0837212 7.74151 0.0796165 7.75738ZM1.15548 14.8431V8.81117L3.45416 10.0911L6.62979 11.8595V17.8914L1.15479 14.8431H1.15548ZM7.72411 25.7545V19.7187L10.8478 21.4442L19.7677 26.368V32.4607L7.72411 25.7545ZM32.905 5.21544V25.7545L20.8627 32.4601V26.3687L27.1539 22.925L27.1559 22.9237L27.1586 22.9224C27.1798 22.9105 27.1976 22.8933 27.2174 22.8787C27.2345 22.8655 27.2543 22.8549 27.2694 22.8404L27.2707 22.8384C27.2885 22.8219 27.3008 22.8014 27.3159 22.7829C27.3295 22.765 27.3459 22.7498 27.3569 22.7313L27.3575 22.7293C27.3699 22.7095 27.3774 22.6857 27.3863 22.6632C27.3951 22.6434 27.4068 22.6249 27.4122 22.6037V22.6031C27.4191 22.5779 27.4204 22.5515 27.4232 22.5257C27.4259 22.5059 27.4314 22.486 27.4314 22.4662V8.26378L30.6063 6.49467L32.905 5.2161V5.21544ZM26.8832 1.2528L32.3561 4.29982L26.8846 7.34683L21.4123 4.29916L26.8846 1.2528H26.8832ZM24.037 20.2687L20.8621 18.5009V5.21544L23.1607 6.49533L26.3364 8.26378V21.5493L24.037 20.2687ZM7.17661 4.84853L12.6489 7.89555L7.17661 10.9426L1.70503 7.89489L7.17661 4.84853ZM7.72411 11.8595L10.8997 10.0911L13.1984 8.81117V14.8431L10.0235 16.6108L7.72411 17.8914V11.8595ZM20.3159 25.4524L12.2893 21.0204L8.27708 18.8057L13.7452 15.7607L20.0411 19.2665L25.7793 22.4616L20.3159 25.4524Z" fill="#3D3D63"/>
</g>
<defs>
<clipPath id="clip0">
<rect width="34" height="34" transform="matrix(-1 0 0 1 34 0)" fill="white"/>
</clipPath>
</defs>
</svg>
