<svg width="34" height="40" viewBox="0 0 34 40" fill="none" xmlns="http://www.w3.org/2000/svg">
<g clip-path="url(#clip0)">
<path d="M17.9383 39.6151C17.6604 39.7808 17.345 39.868 17.024 39.868C16.703 39.868 16.3876 39.7808 16.1097 39.6151L0.959953 30.5972C0.681572 30.4317 0.450394 30.1934 0.289692 29.9064C0.12899 29.6194 0.044445 29.2938 0.0445671 28.9623V10.9128C0.0446434 10.5816 0.129173 10.2561 0.289677 9.96919C0.450184 9.68225 0.681019 9.4439 0.959023 9.27804L16.1088 0.252825C16.3871 0.0871541 16.7027 -6.10352e-05 17.0241 -6.10352e-05C17.3454 -6.10352e-05 17.6611 0.0871541 17.9394 0.252825L33.0851 9.27804C33.3633 9.4438 33.5942 9.68213 33.7548 9.96908C33.9154 10.256 33.9999 10.5815 34 10.9128V28.9635C34 29.6372 33.6511 30.2601 33.0847 30.5971L17.9385 39.6149" fill="#3D3D63"/>
<path d="M7.2141 15.6317L7.88965 15.2306C6.85077 13.6499 6.22993 11.2733 7.0084 7.72029C7.0084 7.72029 8.76161 12.7886 12.2858 12.6207L16.4123 10.1712C16.5663 10.0781 16.7403 10.0258 16.9187 10.0193H17.0139C17.1927 10.0263 17.367 10.0785 17.5217 10.1712L21.6487 12.6206C25.1725 12.7891 26.9262 7.72015 26.9262 7.72015C27.7052 11.273 27.0833 13.6496 26.0446 15.2304L26.7202 15.6317C26.8896 15.7326 27.0302 15.8778 27.1279 16.0527C27.2256 16.2276 27.2769 16.4259 27.2766 16.6277L27.2563 31.3307C27.2563 31.5359 27.1534 31.7259 26.9787 31.8258C26.8956 31.8779 26.8002 31.9055 26.7029 31.9055C26.6055 31.9055 26.5101 31.8779 26.427 31.8258L20.9604 28.5967C20.6145 28.3848 20.4041 28.011 20.4041 27.6022V20.7334C20.4041 20.3239 20.1938 19.9441 19.8494 19.7412L17.5216 18.3585C17.3527 18.2567 17.1604 18.2032 16.9648 18.2037C16.7754 18.2037 16.5807 18.2544 16.412 18.3584L14.085 19.7411C13.9159 19.8413 13.7754 19.9858 13.6779 20.16C13.5803 20.3343 13.5291 20.532 13.5295 20.7332V27.6021C13.5295 28.0107 13.3164 28.3874 12.9725 28.5966L7.50732 31.8254C7.42343 31.8774 7.32739 31.9049 7.22951 31.9049C7.13162 31.9049 7.03558 31.8774 6.95169 31.8254C6.86765 31.7751 6.79793 31.7028 6.74951 31.6159C6.7011 31.529 6.6757 31.4305 6.67587 31.3303L6.65807 16.6273C6.65847 16.2139 6.86869 15.8349 7.21397 15.6314V15.6315L7.2141 15.6317Z" fill="#2F2D49"/>
</g>
<defs>
<clipPath id="clip0">
<rect width="34" height="40" transform="matrix(-1 0 0 1 34 0)" fill="white"/>
</clipPath>
</defs>
</svg>
